<svg xmlns="http://www.w3.org/2000/svg" version="1.1" xmlns:xlink="http://www.w3.org/1999/xlink" xmlns:svgjs="http://svgjs.dev/svgjs" width="1000" height="509" viewBox="0 0 1000 509"><g transform="matrix(1,0,0,1,0.10666666666668334,0.3919639777487305)"><svg viewBox="0 0 375 191" data-background-color="#35185a" preserveAspectRatio="xMidYMid meet" height="509" width="1000" xmlns="http://www.w3.org/2000/svg" xmlns:xlink="http://www.w3.org/1999/xlink"><g id="tight-bounds" transform="matrix(1,0,0,1,-0.03976000000000113,-0.1470827500000098)"><svg viewBox="0 0 375.07953 191.29416550000002" height="191.29416550000002" width="375.07953"><g><svg></svg></g><g><svg viewBox="0 0 375.07953 191.29416550000002" height="191.29416550000002" width="375.07953"><g transform="matrix(1,0,0,1,-10.22024,-33.904739999999975)"><path d="M10.22 213.295v-179.39h375.08v179.39h-76.647l0-4.42h72.227v-170.55h-366.24v170.55h72.227v4.42z" fill="#ffffff" fill-rule="nonzero" stroke="none" stroke-width="1" stroke-linecap="butt" stroke-linejoin="miter" stroke-miterlimit="10" stroke-dasharray="" stroke-dashoffset="0" font-family="none" font-weight="none" font-size="none" text-anchor="none" style="mix-blend-mode: normal" data-fill-palette-color="tertiary"></path><g><path transform="translate(97.64625,217.52218) scale(0.52761,0.52761)" d="M23.85-36h9.75l-0.85 27.25h1.15l8.7-27.25h9.8l-12.35 36h-15l1.35-23.05-6.7 23.05h-15l0.35-36h9.8l-0.9 27.25h1.15zM61.2 0.7v0c-6.933 0-10.4-2.4-10.4-7.2v0c0-0.667 0.067-1.383 0.2-2.15v0l1.05-6.2c0.567-3.2 2.043-5.66 4.43-7.38 2.38-1.713 5.537-2.57 9.47-2.57v0c6.7 0 10.05 2.533 10.05 7.6v0c0 0.733-0.067 1.533-0.2 2.4v0l-0.6 3.55h-15.25l-0.2 1.15c-0.067 0.4-0.1 0.767-0.1 1.1v0c0 1.833 1.083 2.75 3.25 2.75v0c0.8 0 1.483-0.25 2.05-0.75 0.567-0.5 0.9-1.083 1-1.75v0l8.3 0.1c-1.1 6.233-5.45 9.35-13.05 9.35zM60.45-14.3h6.75c0.133-0.567 0.2-1.093 0.2-1.58 0-0.48-0.217-0.97-0.65-1.47-0.433-0.5-1.127-0.75-2.08-0.75-0.947 0-1.81 0.317-2.59 0.95-0.787 0.633-1.33 1.583-1.63 2.85zM96.9-36h9.4l5.35 17.25 11.5-17.25h9.45l-6.35 36h-9.05l3.6-20.3-7.7 12.1h-6.55l-3.4-12.1-3.6 20.3h-9zM156.95-7.7v0c0 0.867 0.443 1.3 1.33 1.3 0.88 0 1.62-0.167 2.22-0.5v0l-0.25 5.65c-1.6 1.3-3.4 1.95-5.4 1.95v0c-3.667 0-5.7-1.333-6.1-4v0c-1.667 2.667-4.117 4-7.35 4v0c-5.467 0-8.2-2.35-8.2-7.05v0c0-0.8 0.083-1.683 0.25-2.65v0l1.05-5.85c0.533-3 1.76-5.393 3.68-7.18 1.913-1.78 4.413-2.67 7.5-2.67 3.08 0 5.17 0.717 6.27 2.15v0l0.25-1.5h7.6l-2.8 15.75c-0.033 0.2-0.05 0.4-0.05 0.6zM142.8-13.85l-0.65 3.75c-0.067 0.3-0.1 0.717-0.1 1.25 0 0.533 0.25 1.057 0.75 1.57 0.5 0.52 1.343 0.78 2.53 0.78 1.18 0 2.203-0.467 3.07-1.4v0l1.5-8.4c-0.367-0.833-1.233-1.25-2.6-1.25v0c-2.567 0-4.067 1.233-4.5 3.7zM179.7-15.35v0c0-1.433-0.69-2.15-2.07-2.15-1.387 0-2.53 0.517-3.43 1.55v0l-2.8 15.95h-8.5l4.25-24.05h7.9l-0.55 2.95c1.967-2.433 4.45-3.65 7.45-3.65 3 0 4.95 0.733 5.85 2.2v0c0.567 0.933 0.85 2 0.85 3.2 0 1.2-0.083 2.317-0.25 3.35v0l-1.35 7.7c-0.033 0.2-0.05 0.383-0.05 0.55v0c0 0.9 0.5 1.35 1.5 1.35v0c0.767 0 1.45-0.167 2.05-0.5v0l-0.25 5.65c-1.567 1.3-3.35 1.95-5.35 1.95v0c-4.533 0-6.8-1.9-6.8-5.7v0c0-0.667 0.067-1.383 0.2-2.15v0l1.2-6.65c0.1-0.6 0.15-1.117 0.15-1.55zM216.95-7.7v0c0 0.867 0.443 1.3 1.33 1.3 0.88 0 1.62-0.167 2.22-0.5v0l-0.25 5.65c-1.6 1.3-3.4 1.95-5.4 1.95v0c-3.667 0-5.7-1.333-6.1-4v0c-1.667 2.667-4.117 4-7.35 4v0c-5.467 0-8.2-2.35-8.2-7.05v0c0-0.8 0.083-1.683 0.25-2.65v0l1.05-5.85c0.533-3 1.76-5.393 3.68-7.18 1.913-1.78 4.413-2.67 7.5-2.67 3.08 0 5.17 0.717 6.27 2.15v0l0.25-1.5h7.6l-2.8 15.75c-0.033 0.2-0.05 0.4-0.05 0.6zM202.8-13.85l-0.65 3.75c-0.067 0.3-0.1 0.717-0.1 1.25 0 0.533 0.25 1.057 0.75 1.57 0.5 0.52 1.343 0.78 2.53 0.78 1.18 0 2.203-0.467 3.07-1.4v0l1.5-8.4c-0.367-0.833-1.233-1.25-2.6-1.25v0c-2.567 0-4.067 1.233-4.5 3.7zM245.6 0.8c-0.733 4.233-2.41 7.583-5.03 10.05-2.613 2.467-5.603 3.7-8.97 3.7-3.367 0-5.793-0.617-7.28-1.85-1.48-1.233-2.22-2.85-2.22-4.85v0c0-2.933 1.867-5.483 5.6-7.65v0c-2.833-0.9-4.25-3.05-4.25-6.45v0c0-0.833 0.083-1.75 0.25-2.75v0l1-5.85c0.533-3 1.767-5.393 3.7-7.18 1.933-1.78 4.443-2.67 7.53-2.67 3.08 0 5.187 0.75 6.32 2.25v0l0.3-1.6h7.45zM233.05-13.85l-0.65 3.75c-0.067 0.3-0.1 0.717-0.1 1.25 0 0.533 0.25 1.057 0.75 1.57 0.5 0.52 1.34 0.78 2.52 0.78 1.187 0 2.213-0.467 3.08-1.4v0l1.5-8.4c-0.467-0.833-1.35-1.25-2.65-1.25-1.3 0-2.317 0.333-3.05 1-0.733 0.667-1.2 1.567-1.4 2.7zM232.75 7.4v0c2.167 0 3.583-1.967 4.25-5.9v0l0.5-2.9c-4.633 2.167-6.95 4.35-6.95 6.55v0c0 0.667 0.193 1.21 0.58 1.63 0.38 0.413 0.92 0.62 1.62 0.62zM261.55 0.7v0c-6.933 0-10.4-2.4-10.4-7.2v0c0-0.667 0.067-1.383 0.2-2.15v0l1.05-6.2c0.567-3.2 2.04-5.66 4.42-7.38 2.387-1.713 5.547-2.57 9.48-2.57v0c6.7 0 10.05 2.533 10.05 7.6v0c0 0.733-0.067 1.533-0.2 2.4v0l-0.6 3.55h-15.25l-0.2 1.15c-0.067 0.4-0.1 0.767-0.1 1.1v0c0 1.833 1.083 2.75 3.25 2.75v0c0.8 0 1.483-0.25 2.05-0.75 0.567-0.5 0.9-1.083 1-1.75v0l8.3 0.1c-1.1 6.233-5.45 9.35-13.05 9.35zM260.8-14.3h6.75c0.133-0.567 0.2-1.093 0.2-1.58 0-0.48-0.217-0.97-0.65-1.47-0.433-0.5-1.127-0.75-2.08-0.75-0.947 0-1.81 0.317-2.59 0.95-0.787 0.633-1.33 1.583-1.63 2.85zM307.15-23.35h1.15l8.45-12.65h9l-15.4 22.15-2.45 13.85h-9.05l2.45-13.85-7.6-22.15h9.55zM333.9-24.75v0c3.6 0 6.317 0.783 8.15 2.35v0c1.433 1.233 2.15 2.95 2.15 5.15v0c0 0.733-0.083 1.533-0.25 2.4v0l-1.05 5.85c-0.633 3.533-2.11 6.033-4.43 7.5-2.313 1.467-5.403 2.2-9.27 2.2-3.867 0-6.7-0.733-8.5-2.2v0c-1.333-1.1-2-2.75-2-4.95v0c0-0.767 0.083-1.617 0.25-2.55v0l1.05-5.85c1.167-6.6 5.8-9.9 13.9-9.9zM334.6-10.1l0.65-3.75c0.067-0.333 0.1-0.76 0.1-1.28 0-0.513-0.217-1.087-0.65-1.72-0.433-0.633-1.193-0.95-2.28-0.95-1.08 0-1.987 0.357-2.72 1.07-0.733 0.72-1.2 1.68-1.4 2.88v0l-0.65 3.75c-0.067 0.333-0.1 0.757-0.1 1.27 0 0.52 0.217 1.08 0.65 1.68 0.433 0.6 1.19 0.9 2.27 0.9 1.087 0 1.997-0.377 2.73-1.13 0.733-0.747 1.2-1.653 1.4-2.72zM371.25-7.7v0c0 0.867 0.44 1.3 1.32 1.3 0.887 0 1.63-0.167 2.23-0.5v0l-0.25 5.65c-1.6 1.3-3.4 1.95-5.4 1.95v0c-3.767 0-5.817-1.45-6.15-4.35v0c-2 2.9-4.693 4.35-8.08 4.35-3.38 0-5.57-0.767-6.57-2.3v0c-0.667-0.967-1-2.067-1-3.3 0-1.233 0.1-2.367 0.3-3.4v0l2.8-15.75h8.5l-2.35 13.3c-0.1 0.6-0.15 1.2-0.15 1.8v0c0 1.6 0.9 2.4 2.7 2.4v0c1.5 0 2.7-0.517 3.6-1.55v0l2.85-15.95h8.5l-2.8 15.75c-0.033 0.2-0.05 0.4-0.05 0.6z" fill="#ffffff" fill-rule="nonzero" stroke="none" stroke-width="1" stroke-linecap="butt" stroke-linejoin="miter" stroke-miterlimit="10" stroke-dasharray="" stroke-dashoffset="0" font-family="none" font-weight="none" font-size="none" text-anchor="none" style="mix-blend-mode: normal" data-fill-palette-color="secondary"></path></g></g><g transform="matrix(1,0,0,1,29.33176500000002,61.780786695082455)"><svg viewBox="0 0 316.41599999999994 67.73259210983511" height="67.73259210983511" width="316.41599999999994"><g><svg viewBox="0 0 417.9310808112715 89.46309739903289" height="67.73259210983511" width="316.41599999999994"><g transform="matrix(1,0,0,1,101.51508081127147,12.36429204284753)"><svg viewBox="0 0 316.416 64.73451331333783" height="64.73451331333783" width="316.416"><g id="textblocktransform"><svg viewBox="0 0 316.416 64.73451331333783" height="64.73451331333783" width="316.416" id="textblock"><g><svg viewBox="0 0 316.416 64.73451331333783" height="64.73451331333783" width="316.416"><g transform="matrix(1,0,0,1,0,0)"><svg width="316.416" viewBox="3.15 -37.1 240.23 49.151961786097004" height="64.73451331333783" data-palette-color="#ffffff"><path d="M3.15 0.4L3.5-1.9Q5.7-2.3 6.4-3.08 7.1-3.85 7.1-6L7.1-6 7.15-27Q7.15-28.6 6.78-29.15 6.4-29.7 5.3-29.7L5.3-29.7Q4.8-29.7 4.3-29.65 3.8-29.6 3.6-29.6L3.6-29.6 3.5-29.8 3.85-32Q4.45-31.95 6.1-31.9 7.75-31.85 9.4-31.85L9.4-31.85Q10.95-31.85 12.93-31.93 14.9-32 15.7-32.05L15.7-32.05Q20.9-32.05 23.65-29.75 26.4-27.45 26.4-23.15L26.4-23.15Q26.4-20.35 24.78-17.82 23.15-15.3 20.5-13.75 17.85-12.2 14.95-12.2L14.95-12.2 10.75-12.2 10.65-7.3Q10.65-4.9 10.8-3.88 10.95-2.85 11.38-2.53 11.8-2.2 12.85-2.2L12.85-2.2Q13.7-2.2 14.48-2.25 15.25-2.3 15.55-2.35L15.55-2.35 15.65-2.15 15.2 0.15Q14.7 0.1 13.38 0.05 12.05 0 10.6 0L10.6 0Q8.6 0 5.93 0.15 3.25 0.3 3.15 0.4L3.15 0.4ZM16.15-14.4Q19.15-14.9 20.68-16.85 22.2-18.8 22.2-22.2L22.2-22.2Q22.2-26.05 19.93-27.83 17.65-29.6 12.8-29.6L12.8-29.6Q11.9-29.6 11.7-29.5 11.5-29.4 11.45-28.9L11.45-28.9Q11-22.55 10.85-15.15L10.85-15.15 16.15-14.4ZM45.15 0.6Q41.1 0.6 40.7-3.45L40.7-3.45 40.5-3.5Q38.7-1.7 37.22-0.65 35.75 0.4 35 0.4L35 0.4Q32.2 0.4 30.4-1.35 28.6-3.1 28.6-5.8L28.6-5.8Q28.6-7.25 29.32-8.35 30.05-9.45 31.25-9.8L31.25-9.8 40.75-12.4 40.8-14.6Q40.8-17.1 39.65-18.5 38.5-19.9 36.4-19.9L36.4-19.9Q35-19.9 33.45-19.25 31.9-18.6 30.4-17.4L30.4-17.4 30.15-17.55 29.55-19.7Q31.9-21.05 34.27-22.13 36.65-23.2 37.7-23.2L37.7-23.2Q40.95-23.2 42.8-21.5 44.65-19.8 44.65-16.75L44.65-16.75Q44.65-15.65 44.3-12.25L44.3-12.25Q43.75-6.75 43.75-5.25L43.75-5.25Q43.75-4.15 44.3-3.55 44.85-2.95 45.8-2.95L45.8-2.95Q46.6-2.95 47.45-3.33 48.3-3.7 48.8-4.2L48.8-4.2 49.5-3.4Q48.75-2.15 47.57-0.98 46.4 0.2 45.15 0.6L45.15 0.6ZM35.85-3Q36.8-3 38.07-3.68 39.35-4.35 40.4-5.4L40.4-5.4 40.65-10.5 33.85-8.45Q32.4-8 32.4-6.35L32.4-6.35Q32.4-4.9 33.37-3.95 34.35-3 35.85-3L35.85-3ZM50.69 12.05Q50.29 12.05 49.39 10.88 48.49 9.7 48.49 9.2L48.49 9.2 48.74 8.85Q51.54 8.85 53.97 6.53 56.39 4.2 58.14 0L58.14 0Q54.29-12.2 51.94-18.4L51.94-18.4Q51.49-19.65 50.67-20.2 49.84-20.75 48.54-20.8L48.54-20.8 48.44-21 48.74-22.65 52.89-22.6Q54.74-22.6 56.57-22.75 58.39-22.9 58.89-22.95L58.89-22.95 58.99-22.7 58.69-21.15Q56.99-21.1 56.42-20.83 55.84-20.55 55.84-19.85L55.84-19.85Q55.84-19.05 56.82-15.7 57.79-12.35 58.84-9.03 59.89-5.7 60.24-4.7L60.24-4.7 60.44-4.7Q66.19-18.45 66.19-19.65L66.19-19.65Q66.19-20.95 64.3-20.95L64.3-20.95 61.99-20.95 61.89-21.15 62.19-22.8Q62.64-22.75 64.19-22.68 65.75-22.6 67.3-22.6L67.3-22.6 71.55-22.65 71.19-20.8Q70.09-20.6 69.52-20.03 68.94-19.45 68.39-17.95L68.39-17.95 62.04-2.75Q59.44 3.55 57.79 6.6 56.14 9.65 54.54 10.88 52.94 12.1 50.69 12.05L50.69 12.05ZM74.14-1.8Q75.64-1.95 76.14-2.78 76.64-3.6 76.64-5.95L76.64-5.95 76.64-16.95Q76.64-18.6 76.19-19.3 75.74-20 74.74-20L74.74-20Q74.34-20 74.07-19.95 73.79-19.9 73.69-19.85L73.69-19.85 73.44-20.2 73.59-21.75Q75.49-22.1 77.62-22.6 79.74-23.1 80.34-23.25L80.34-23.25 80.69-22.95Q80.59-22.5 80.39-20.88 80.19-19.25 80.24-17.8L80.24-17.8 80.44-17.65Q81.94-20 83.97-21.5 85.99-23 87.49-23L87.49-23Q88.19-23 88.57-22.93 88.94-22.85 89.04-22.8L89.04-22.8 89.19-22.6Q89.09-21.9 88.77-19.63 88.44-17.35 88.39-15.45L88.39-15.45 86.44-15.3Q86.44-17.35 86.17-18.03 85.89-18.7 85.09-18.7L85.09-18.7Q83.99-18.7 82.74-17.78 81.49-16.85 80.44-15.3L80.44-15.3Q80.39-13.85 80.24-10.5 80.09-7.15 80.04-5.1L80.04-5.1Q80.04-3.4 80.54-2.8 81.04-2.2 82.44-2.2L82.44-2.2Q83.09-2.2 83.74-2.25 84.39-2.3 84.64-2.3L84.64-2.3 84.69-2.1 84.24 0.1Q83.74 0.1 82.24 0.05 80.74 0 79.14 0L79.14 0Q77.29 0 75.79 0.08 74.29 0.15 73.89 0.2L73.89 0.2 74.14-1.8ZM101.34 0.6Q98.49 0.6 96.29-0.8 94.09-2.2 92.87-4.73 91.64-7.25 91.64-10.5L91.64-10.5Q91.64-14 93.17-16.93 94.69-19.85 97.34-21.53 99.99-23.2 103.24-23.2L103.24-23.2Q106.04-23.2 108.27-21.8 110.49-20.4 111.72-17.88 112.94-15.35 112.94-12.1L112.94-12.1Q112.94-8.6 111.42-5.68 109.89-2.75 107.24-1.07 104.59 0.6 101.34 0.6L101.34 0.6ZM102.74-1.85Q105.54-1.85 107.19-4.13 108.84-6.4 108.84-10.3L108.84-10.3Q108.84-13.25 107.94-15.58 107.04-17.9 105.42-19.2 103.79-20.5 101.74-20.5L101.74-20.5Q98.94-20.5 97.29-18.2 95.64-15.9 95.64-11.95L95.64-11.95Q95.64-9 96.54-6.7 97.44-4.4 99.04-3.13 100.64-1.85 102.74-1.85L102.74-1.85ZM116.09 0.6L116.29-1.45Q117.69-1.85 118.26-2.45 118.84-3.05 118.96-3.9 119.09-4.75 119.09-6.75L119.09-6.75 119.09-31.3Q119.09-32.85 118.74-33.4 118.39-33.95 117.29-33.95L117.29-33.95Q117.04-33.95 116.14-33.85L116.14-33.85 115.99-33.95 116.19-35.65Q120.39-36.25 123.59-37.1L123.59-37.1 123.89-36.45Q123.34-35.6 122.91-25.75 122.49-15.9 122.49-4.9L122.49-4.9Q122.49-3.4 122.89-2.75 123.29-2.1 124.24-2.1L124.24-2.1 125.99-2.2 126.09-2 125.69 0.15Q122.39 0 121.24 0L121.24 0Q119.54 0 116.09 0.6L116.09 0.6ZM128.29 0.6L128.49-1.45Q129.89-1.85 130.46-2.45 131.04-3.05 131.16-3.9 131.29-4.75 131.29-6.75L131.29-6.75 131.29-31.3Q131.29-32.85 130.94-33.4 130.59-33.95 129.49-33.95L129.49-33.95Q129.24-33.95 128.34-33.85L128.34-33.85 128.19-33.95 128.39-35.65Q132.59-36.25 135.79-37.1L135.79-37.1 136.09-36.45Q135.54-35.6 135.11-25.75 134.69-15.9 134.69-4.9L134.69-4.9Q134.69-3.4 135.09-2.75 135.49-2.1 136.44-2.1L136.44-2.1 138.19-2.2 138.29-2 137.89 0.15Q134.59 0 133.44 0L133.44 0Q131.74 0 128.29 0.6L128.29 0.6ZM177.53 2Q173.18-4.75 169.06-10.88 164.93-17 162.28-20.78 159.63-24.55 158.93-25.55L158.93-25.55 158.68-25.55 158.43-4.2Q158.43-3.1 158.78-2.65 159.13-2.2 159.98-2.2L159.98-2.2 162.53-2.25 162.63-2.05 162.18 0.2Q161.63 0.15 159.93 0.08 158.23 0 156.88 0L156.88 0Q155.63 0 154.16 0.18 152.68 0.35 152.23 0.4L152.23 0.4 152.48-1.9Q154.03-2.1 154.78-2.83 155.53-3.55 155.58-5.05L155.58-5.05 156.23-26.9Q156.23-28.45 155.31-29.1 154.38-29.75 151.88-30L151.88-30 151.73-30.25 152.13-32.1Q152.58-32.05 154.08-31.95 155.58-31.85 156.43-31.85L156.43-31.85Q157.48-31.85 158.48-31.93 159.48-32 159.78-32.05L159.78-32.05Q163.48-26.3 167.21-20.8 170.93-15.3 173.43-11.75 175.93-8.2 176.58-7.25L176.58-7.25 176.83-7.25 176.83-27.5Q176.83-29.65 175.18-29.65L175.18-29.65 173.28-29.6 173.18-29.8 173.63-32.05Q174.13-32 175.53-31.93 176.93-31.85 178.38-31.85L178.38-31.85Q179.68-31.85 181.26-32.02 182.83-32.2 183.33-32.25L183.33-32.25 183.08-29.95Q181.33-29.7 180.53-28.98 179.73-28.25 179.68-26.8L179.68-26.8 178.98 1.3 177.53 2ZM195.48 0.6Q192.63 0.6 190.43-0.8 188.23-2.2 187-4.73 185.78-7.25 185.78-10.5L185.78-10.5Q185.78-14 187.3-16.93 188.83-19.85 191.48-21.53 194.13-23.2 197.38-23.2L197.38-23.2Q200.18-23.2 202.4-21.8 204.63-20.4 205.85-17.88 207.08-15.35 207.08-12.1L207.08-12.1Q207.08-8.6 205.55-5.68 204.03-2.75 201.38-1.07 198.73 0.6 195.48 0.6L195.48 0.6ZM196.88-1.85Q199.68-1.85 201.33-4.13 202.98-6.4 202.98-10.3L202.98-10.3Q202.98-13.25 202.08-15.58 201.18-17.9 199.55-19.2 197.93-20.5 195.88-20.5L195.88-20.5Q193.08-20.5 191.43-18.2 189.78-15.9 189.78-11.95L189.78-11.95Q189.78-9 190.68-6.7 191.58-4.4 193.18-3.13 194.78-1.85 196.88-1.85L196.88-1.85ZM217.18 0.85Q216.48-1.55 214.3-8.58 212.13-15.6 211.28-18.3L211.28-18.3Q210.43-20.75 207.98-20.8L207.98-20.8 207.88-21 208.18-22.65 212.18-22.6Q214.08-22.6 215.8-22.75 217.53-22.9 218.03-22.95L218.03-22.95 218.13-22.7 217.83-21.15Q216.18-21.1 215.58-20.83 214.98-20.55 214.98-19.85L214.98-19.85Q214.98-18.9 216.73-12.68 218.48-6.45 219.13-4.25L219.13-4.25 219.33-4.25 222.28-11.65Q223.88-15.5 224.58-17.5L224.58-17.5Q224.03-19.2 223.25-20 222.48-20.8 221.03-20.8L221.03-20.8 220.93-21 221.23-22.65 225.23-22.6Q227.08-22.6 228.83-22.7 230.58-22.8 231.08-22.85L231.08-22.85 231.18-22.6 230.88-21.05Q229.18-21 228.6-20.75 228.03-20.5 228.03-19.85L228.03-19.85Q228.03-18.95 229.78-12.73 231.53-6.5 232.18-4.25L232.18-4.25 232.38-4.25Q234.58-9.9 235.28-11.5L235.28-11.5Q236.53-14.6 237.35-16.8 238.18-19 238.18-19.6L238.18-19.6Q238.18-20.3 237.7-20.58 237.23-20.85 236.13-20.85L236.13-20.85 234.28-20.85 234.08-21.15 234.33-22.7Q234.78-22.7 236.13-22.65 237.48-22.6 239.28-22.6L239.28-22.6 243.38-22.65 243.03-20.8Q242.03-20.7 241.43-19.98 240.83-19.25 239.93-17.05L239.93-17.05 232.93 0 230.23 0.85 225.73-13.9 225.43-13.9 219.93 0 217.18 0.85Z" opacity="1" transform="matrix(1,0,0,1,0,0)" fill="#ffffff" class="wordmark-text-0" data-fill-palette-color="primary" id="text-0"></path></svg></g></svg></g></svg></g></svg></g><g><svg viewBox="0 0 86.23281584631194 89.46309739903289" height="89.46309739903289" width="86.23281584631194"><g><svg xmlns="http://www.w3.org/2000/svg" data-name="Layer 1" viewBox="16.899928772258626 15.68 66.20014245548273 68.68" x="0" y="0" height="89.46309739903289" width="86.23281584631194" class="icon-icon-0" data-fill-palette-color="accent" id="icon-0"><path d="M76.71 46.91H58.09a6.33 6.33 0 0 1-6.32-6.33V22a6.33 6.33 0 0 1 6.32-6.32H76.71A6.34 6.34 0 0 1 83 22V40.58A6.34 6.34 0 0 1 76.71 46.91ZM58.09 17.64A4.33 4.33 0 0 0 53.77 22V40.58a4.33 4.33 0 0 0 4.32 4.33H76.71A4.33 4.33 0 0 0 81 40.58V22a4.33 4.33 0 0 0-4.33-4.32Z" fill="#ffffff" data-fill-palette-color="accent"></path><path d="M76.78 84.36H58.15A6.33 6.33 0 0 1 51.83 78V59.42a6.34 6.34 0 0 1 6.32-6.33H76.78a6.34 6.34 0 0 1 6.32 6.33V78A6.33 6.33 0 0 1 76.78 84.36ZM58.15 55.09a4.33 4.33 0 0 0-4.32 4.33V78a4.33 4.33 0 0 0 4.32 4.32H76.78A4.33 4.33 0 0 0 81.1 78V59.42a4.33 4.33 0 0 0-4.32-4.33Z" fill="#ffffff" data-fill-palette-color="accent"></path><path d="M41.85 84.36H23.22A6.33 6.33 0 0 1 16.9 78V59.42a6.34 6.34 0 0 1 6.32-6.33H41.85a6.34 6.34 0 0 1 6.32 6.33V78A6.33 6.33 0 0 1 41.85 84.36ZM23.22 55.09a4.33 4.33 0 0 0-4.32 4.33V78a4.33 4.33 0 0 0 4.32 4.32H41.85A4.33 4.33 0 0 0 46.17 78V59.42a4.33 4.33 0 0 0-4.32-4.33Z" fill="#ffffff" data-fill-palette-color="accent"></path><path d="M41.85 46.91H23.22a6.34 6.34 0 0 1-6.32-6.33V22a6.33 6.33 0 0 1 6.32-6.32H41.85A6.33 6.33 0 0 1 48.17 22V40.58A6.34 6.34 0 0 1 41.85 46.91ZM23.22 17.64A4.33 4.33 0 0 0 18.9 22V40.58a4.33 4.33 0 0 0 4.32 4.33H41.85a4.33 4.33 0 0 0 4.32-4.33V22a4.33 4.33 0 0 0-4.32-4.32Z" fill="#ffffff" data-fill-palette-color="accent"></path></svg></g></svg></g></svg></g></svg></g></svg></g><defs></defs></svg><rect width="375.07953" height="191.29416550000002" fill="none" stroke="none" visibility="hidden"></rect></g></svg></g></svg>